<svg xmlns="http://www.w3.org/2000/svg" width="291.575" height="25.301" viewBox="0 0 291.575 25.301">
  <path id="Path_21238" data-name="Path 21238" d="M.6-22.4l-.133-.116v-.83L.6-23.458q2.839.133,4.383.133.581,0,4.6-.133,1.295-.033,1.876-.033a11.332,11.332,0,0,1,3.553.448,4.154,4.154,0,0,1,2.108,1.585,4.39,4.39,0,0,1,.8,2.582,5.206,5.206,0,0,1-1.328,3.42A7.7,7.7,0,0,1,12.269-13.2a17.859,17.859,0,0,1,2.955.481,5.661,5.661,0,0,1,2.009.971,4.551,4.551,0,0,1,1.336,1.7,5.658,5.658,0,0,1,.49,2.424,7.635,7.635,0,0,1-.332,2.191,6.477,6.477,0,0,1-1.22,2.208,8.482,8.482,0,0,1-2.15,1.876A9.527,9.527,0,0,1,12.775-.216,13.067,13.067,0,0,1,9.5.133Q9.1.133,7.105.05,4.9,0,4.715,0,3.586,0,1.942.133L1.81,0V-.548l.133-.166a4.714,4.714,0,0,0,1.112-.6A13,13,0,0,0,3.3-4.25q.091-2.772.091-4.233v-6.093L3.37-18.345q0-1.229-.033-2a9.664,9.664,0,0,0-.091-1.1.87.87,0,0,0-.191-.465,1.046,1.046,0,0,0-.374-.224,3.81,3.81,0,0,0-.822-.158Zm5.96,8.716q.83.066,1.876.066,3.437,0,4.781-1.229a4.337,4.337,0,0,0,1.345-3.37,4.094,4.094,0,0,0-.515-2.117,3.278,3.278,0,0,0-1.619-1.336,7.891,7.891,0,0,0-3-.465,13.272,13.272,0,0,0-2.723.249q-.149,1.494-.149,5.213Zm.033,12.1a11.485,11.485,0,0,0,2.623.3,7.572,7.572,0,0,0,3.719-.764,4.7,4.7,0,0,0,1.984-2.117,6.811,6.811,0,0,0,.639-2.947A5.353,5.353,0,0,0,14.2-10.932q-1.353-1.436-5.852-1.436-.747,0-1.793.066v5.661ZM24.219.133,24.07,0V-.863L24.219-1a7.127,7.127,0,0,0,1.561-.125,1.33,1.33,0,0,0,.623-.432,13.69,13.69,0,0,0,1.1-2.117l1.743-3.785,4.516-10.227q1.278-3,2.54-6.01h1.079L44.473-7.022,45.419-4.8q.415.946.955,2.059a6.293,6.293,0,0,0,.747,1.312,1.4,1.4,0,0,0,.515.307A5.524,5.524,0,0,0,49.005-1l.133.133V0l-.133.133q-1.76-.149-3.171-.149-2.756.083-5.512.149L40.19,0V-.863L40.323-1a13.362,13.362,0,0,0,2.324-.158.552.552,0,0,0,.465-.573,2.827,2.827,0,0,0-.232-.963L40.837-7.753H31.225L29.415-3.5a5.006,5.006,0,0,0-.481,1.677.65.65,0,0,0,.448.614A7.59,7.59,0,0,0,31.64-1l.149.133V0l-.133.133Q29.515,0,27.9,0,26.078,0,24.219.133Zm7.57-9.313h8.4L36.023-19.191ZM53.751.116,53.6-.033V-.8l.149-.133a11.6,11.6,0,0,0,1.619-.116,1.223,1.223,0,0,0,.78-.332,1.561,1.561,0,0,0,.232-.747q.058-.515.116-2.324t.058-2.59V-20.453a2.08,2.08,0,0,0-.307-1.253,1.347,1.347,0,0,0-.838-.515,11.094,11.094,0,0,0-1.81-.125l-.133-.133v-.78l.133-.149q2.291.083,3,.083,1.677,0,2.756-.083l5.3,6.873,7.786,9.762Q73.855-5,75.316-3.4v-12.85q0-.6-.058-2.548t-.141-2.474a1.186,1.186,0,0,0-.291-.706,1.619,1.619,0,0,0-.78-.274,11.6,11.6,0,0,0-1.552-.108l-.133-.133v-.764l.133-.149q1.345.083,3.835.083,2.274,0,3.3-.083l.149.149v.764l-.133.133a11.08,11.08,0,0,0-1.693.125,1.067,1.067,0,0,0-.747.357,1.892,1.892,0,0,0-.208.73q-.058.481-.116,2.291t-.058,2.606v7.886L76.843-3.8q.033,2.241.066,4.5A26.7,26.7,0,0,0,74.038,0L72.859-1.395,69.323-5.711,58.067-19.772V-7.039q0,.764.058,2.723a21.754,21.754,0,0,0,.141,2.374,1.337,1.337,0,0,0,.216.573,1.248,1.248,0,0,0,.573.291,8.106,8.106,0,0,0,1.818.149l.133.133v.78l-.133.133A23.45,23.45,0,0,0,58.084,0Q55.61,0,53.751.116Zm37.2-12.136q4.167-3.769,6.018-5.62l3.055-3.055a15.355,15.355,0,0,0,1.436-1.552v-1.079l.166-.133q1.262.066,2.756.066.332,0,2.623-.05l.166.149v.78l-.133.133a8.376,8.376,0,0,0-2.108.174,5.85,5.85,0,0,0-1.652,1.063q-1.087.888-2.5,2.183l-6.724,6.143,9.994,9.247q2.407,2.241,2.7,2.44a2.563,2.563,0,0,0,1.2.232l.116.133v.7l-.116.133Q106.989,0,105.96,0q-.614,0-2.689.066-1.511-1.428-2.648-2.523t-9.67-8.9v3.536l.017,3.237a22.546,22.546,0,0,0,.1,2.424,1.551,1.551,0,0,0,.241.73,1.247,1.247,0,0,0,.606.307,13.159,13.159,0,0,0,2.208.191l.133.1V0l-.133.133q-.083,0-2.922-.1Q90.022,0,89.358,0q-.515,0-4.748.133L84.477,0V-.83l.133-.1A17.3,17.3,0,0,0,86.669-1.1a1.518,1.518,0,0,0,.689-.257,1.3,1.3,0,0,0,.282-.672,15.278,15.278,0,0,0,.125-2.291l.017-3.5v-7.687l-.033-3.237q-.017-1.893-.091-2.44a1.5,1.5,0,0,0-.232-.73,1.2,1.2,0,0,0-.606-.3A14.238,14.238,0,0,0,84.61-22.4l-.133-.116v-.83l.133-.116,2.075.066q2.042.066,2.673.066.564,0,4.765-.133l.133.116v.83l-.133.116q-1.146.033-1.768.1a2.148,2.148,0,0,0-.9.249,1.177,1.177,0,0,0-.374.855,14.7,14.7,0,0,0-.091,1.868l-.033,3.818ZM123.386-7.6a9.3,9.3,0,0,1,.813-3.81,7.482,7.482,0,0,1,2.831-3.171,8.471,8.471,0,0,1,4.79-1.336,7.666,7.666,0,0,1,5.678,2.2,7.668,7.668,0,0,1,2.191,5.653,8.374,8.374,0,0,1-2.515,6.259A8.368,8.368,0,0,1,131.106.647a7.16,7.16,0,0,1-4.15-1.253,7.815,7.815,0,0,1-2.7-3.063A8.947,8.947,0,0,1,123.386-7.6Zm3.138-1.146a13.4,13.4,0,0,0,.6,4.159,6.393,6.393,0,0,0,1.893,2.947,4.408,4.408,0,0,0,2.955,1.112,4.016,4.016,0,0,0,3.237-1.552,7.233,7.233,0,0,0,1.278-4.673,10.927,10.927,0,0,0-1.386-5.794,4.42,4.42,0,0,0-3.993-2.258,4.027,4.027,0,0,0-3.37,1.561A7.212,7.212,0,0,0,126.524-8.749ZM153.1-.847l.133.133v.7L153.1.133q-.515,0-1.942-.066Q149.863,0,148.485,0q-1.793,0-4,.133l-.133-.149v-.7l.133-.133q1.61-.1,1.826-.149a.713.713,0,0,0,.365-.208.927.927,0,0,0,.208-.481q.058-.324.133-2.142t.075-2.748v-6.408l-2.142.116L144.8-13v-.415l.116-.166,2.175-1.112v-1a15.745,15.745,0,0,1,.149-2.515,4.91,4.91,0,0,1,.556-1.577,10.758,10.758,0,0,1,1.419-1.826q1.013-1.1,1.776-1.81a5,5,0,0,1,1.328-.946,3.368,3.368,0,0,1,1.328-.241,4.235,4.235,0,0,1,1.361.249l-.017,2.723-.382.149a3.141,3.141,0,0,0-2.158-.83,2.985,2.985,0,0,0-1.494.357,1.855,1.855,0,0,0-.863,1.162,10.7,10.7,0,0,0-.232,2.665v3.437h1.776q1.378,0,2.606-.1l.149.183-.3,1.461-.149.166q-.5-.017-.647-.017l-2.158-.017h-1.278v6.69q0,.531.075,2.432t.141,2.233a.89.89,0,0,0,.224.481,1.015,1.015,0,0,0,.515.216Q151.174-.9,153.1-.847Zm38.859-1.959-.631,1.544A17.106,17.106,0,0,1,183.459.614a13.915,13.915,0,0,1-9.737-3.4,11.46,11.46,0,0,1-3.744-8.9,11.735,11.735,0,0,1,1.868-6.616,11.574,11.574,0,0,1,4.931-4.233,16.34,16.34,0,0,1,6.881-1.4,20.678,20.678,0,0,1,4.366.465,18.378,18.378,0,0,1,3.6,1.112l.116.166a21.2,21.2,0,0,0-.714,4.6l-.116.133h-.78L190-17.6l-.166-2.822a8.984,8.984,0,0,0-2.93-1.5,11.871,11.871,0,0,0-3.578-.54,10.4,10.4,0,0,0-5.03,1.2,8.389,8.389,0,0,0-3.453,3.486,11.659,11.659,0,0,0-1.229,5.586,11.465,11.465,0,0,0,1.444,5.827A9.884,9.884,0,0,0,179-2.507a12.13,12.13,0,0,0,5.835,1.345,13.953,13.953,0,0,0,2.839-.282,10.718,10.718,0,0,0,2.266-.7,10.351,10.351,0,0,0,1.735-1.013Zm4.364-20.536.133-.116q3.038.133,4.731.133,1.876,0,5.063-.116,1.179-.033,1.71-.033,4.2,0,5.694,1.527a5,5,0,0,1,1.494,3.619,5.678,5.678,0,0,1-.73,2.739,6.5,6.5,0,0,1-2.158,2.3,10.763,10.763,0,0,1-3.935,1.436q.465.647,1.677,2.241l2.357,3.121q1.146,1.544,2.457,3.262a10.514,10.514,0,0,0,1.693,1.942,2.1,2.1,0,0,0,.656.274,5.409,5.409,0,0,0,.872.05l.133.133v.78L218.021.1a15.514,15.514,0,0,0-1.893-.1q-1.179,0-2.573.1-1.146-1.395-3.6-4.831-2.855-3.984-5.844-7.388l.166-.515q.863.05,1.345.05a6.748,6.748,0,0,0,4.5-1.378,4.734,4.734,0,0,0,1.627-3.818,3.916,3.916,0,0,0-1.461-3.312,6.335,6.335,0,0,0-3.951-1.121,10.982,10.982,0,0,0-3.287.481q-.249.365-.249,6.226v7.687l.017,3.237a22.542,22.542,0,0,0,.1,2.424,1.551,1.551,0,0,0,.241.73,1.247,1.247,0,0,0,.606.307,13.159,13.159,0,0,0,2.208.191l.133.1V0l-.133.133q-.083,0-2.922-.1Q201.868,0,201.2,0q-.515,0-4.748.133L196.323,0V-.83l.133-.1a17.3,17.3,0,0,0,2.059-.166,1.518,1.518,0,0,0,.689-.257,1.3,1.3,0,0,0,.282-.672,15.276,15.276,0,0,0,.125-2.291l.017-3.5v-7.687l-.033-3.237q-.017-1.893-.091-2.44a1.5,1.5,0,0,0-.232-.73,1.2,1.2,0,0,0-.606-.3,14.238,14.238,0,0,0-2.208-.183l-.133-.116ZM221.787.133,221.637,0V-.863L221.787-1a7.127,7.127,0,0,0,1.561-.125,1.33,1.33,0,0,0,.623-.432,13.69,13.69,0,0,0,1.1-2.117l1.743-3.785,4.516-10.227q1.278-3,2.54-6.01h1.079l7.089,16.668.946,2.225q.415.946.955,2.059a6.293,6.293,0,0,0,.747,1.312,1.4,1.4,0,0,0,.515.307,5.525,5.525,0,0,0,1.37.125l.133.133V0l-.133.133q-1.76-.149-3.171-.149-2.756.083-5.512.149L237.758,0V-.863L237.89-1a13.362,13.362,0,0,0,2.324-.158.552.552,0,0,0,.465-.573,2.827,2.827,0,0,0-.232-.963l-2.042-5.063h-9.612l-1.81,4.25a5.006,5.006,0,0,0-.481,1.677.65.65,0,0,0,.448.614A7.59,7.59,0,0,0,229.208-1l.149.133V0l-.133.133Q227.083,0,225.472,0,223.646,0,221.787.133Zm7.57-9.313h8.4l-4.167-10.011Zm28.1-2.009v3.37l.017,3.237a23.083,23.083,0,0,0,.1,2.4,1.574,1.574,0,0,0,.241.764,1.3,1.3,0,0,0,.606.3,13.159,13.159,0,0,0,2.208.191l.133.1V0l-.133.133Q256.415,0,255.867,0q-.531,0-4.748.133L250.986,0V-.83l.133-.1a17.144,17.144,0,0,0,2.067-.166,1.431,1.431,0,0,0,.681-.266,1.338,1.338,0,0,0,.282-.664,14.712,14.712,0,0,0,.125-2.258l.017-3.536v-7.687l-.033-3.237q-.017-1.893-.091-2.44a1.5,1.5,0,0,0-.232-.73,1.2,1.2,0,0,0-.606-.3,14.238,14.238,0,0,0-2.208-.183l-.133-.116v-.83l.133-.116q7.039.1,8.218.1,3.951,0,8.1-.1l.133.116a8.339,8.339,0,0,0-.349,1.884q-.083,1.054-.183,2.98l-.133.133h-.78l-.116-.133q-.033-.116-.149-1.278a11.832,11.832,0,0,0-.266-1.677,15.5,15.5,0,0,0-4.765-.581,29.883,29.883,0,0,0-3.187.2,62.752,62.752,0,0,0-.183,6.309v2.872q2.108.033,2.872.033a23.31,23.31,0,0,0,2.424-.108,5.25,5.25,0,0,0,1.212-.208.664.664,0,0,0,.307-.374,5.82,5.82,0,0,0,.208-1.2l.1-.9.116-.133h.847l.133.149-.116,3.636q0,.631.05,1.826.066,1.361.066,2.108l-.149.133h-.83l-.116-.133-.066-1.411a5.738,5.738,0,0,0-.166-1.212.732.732,0,0,0-.382-.5,5.042,5.042,0,0,0-1.179-.216q-.913-.1-2.806-.1Q258.308-11.239,257.461-11.189ZM291.89-23.458l.149.149q-.149,1.494-.149,5.213l-.133.133h-.78l-.133-.149-.183-1.527a14.2,14.2,0,0,0-.208-1.5.712.712,0,0,0-.241-.4,2.986,2.986,0,0,0-1.079-.208q-.913-.083-2.042-.083h-3.138q-.133,3.752-.133,4.333v9.679l.033,3.237q.017,1.876.091,2.432a1.461,1.461,0,0,0,.232.73,1.3,1.3,0,0,0,.606.3,13.3,13.3,0,0,0,2.225.191l.116.1V0l-.116.133Q282.759,0,282.261,0q-.531,0-4.731.133L277.4,0V-.83l.133-.1A17.144,17.144,0,0,0,279.6-1.1a1.5,1.5,0,0,0,.681-.257,1.343,1.343,0,0,0,.291-.672,13.551,13.551,0,0,0,.116-2.291l.033-3.5V-17.5q0-.266-.133-4.333h-2.474q-1.527,0-2.64.066t-1.287.34a6,6,0,0,0-.324,1.785l-.166,1.527-.149.149h-.764l-.133-.133q-.033-4-.149-5.213l.149-.149q2.889.133,9.612.133Q289.118-23.325,291.89-23.458Z" transform="translate(-0.465 24.604)" fill="#fff"/>
</svg>
